<?xml version="1.0" encoding="UTF-8"?>
<svg width="1024" height="1024" viewBox="0 0 1024 1024" xmlns="http://www.w3.org/2000/svg">
  <defs>
    <!-- Modern gradients using Afghan flag colors -->
    <linearGradient id="signalGradient" x1="0%" y1="0%" x2="100%" y2="100%">
      <stop offset="0%" style="stop-color:#006633;stop-opacity:1" />
      <stop offset="50%" style="stop-color:#228B22;stop-opacity:1" />
      <stop offset="100%" style="stop-color:#32CD32;stop-opacity:1" />
    </linearGradient>
    
    <linearGradient id="accentGradient" x1="0%" y1="0%" x2="100%" y2="100%">
      <stop offset="0%" style="stop-color:#CC0000;stop-opacity:1" />
      <stop offset="100%" style="stop-color:#FF3333;stop-opacity:1" />
    </linearGradient>
    
    <radialGradient id="backgroundGradient" cx="50%" cy="30%" r="70%">
      <stop offset="0%" style="stop-color:#FFFFFF;stop-opacity:1" />
      <stop offset="100%" style="stop-color:#F5F5F5;stop-opacity:1" />
    </radialGradient>
    
    <!-- Enhanced shadow for better visibility at small sizes -->
    <filter id="dropshadow" x="-20%" y="-20%" width="140%" height="140%">
      <feDropShadow dx="3" dy="6" stdDeviation="4" flood-opacity="0.4"/>
    </filter>
  </defs>
  
  <!-- Rounded square background for modern app icon look -->
  <rect x="0" y="0" width="1024" height="1024" rx="180" ry="180" 
        fill="url(#backgroundGradient)" stroke="#D0D0D0" stroke-width="4"/>
  
  <!-- Main signal design centered -->
  <g transform="translate(512, 512)">
    
    <!-- Signal bars - bold and clear for small sizes -->
    <!-- Bar 1 (shortest) -->
    <rect x="-160" y="80" width="60" height="120" rx="12" ry="12" 
          fill="url(#signalGradient)" filter="url(#dropshadow)"/>
    
    <!-- Bar 2 -->
    <rect x="-60" y="0" width="60" height="200" rx="12" ry="12" 
          fill="url(#signalGradient)" filter="url(#dropshadow)"/>
    
    <!-- Bar 3 -->
    <rect x="40" y="-80" width="60" height="280" rx="12" ry="12" 
          fill="url(#signalGradient)" filter="url(#dropshadow)"/>
    
    <!-- Bar 4 (tallest) -->
    <rect x="140" y="-160" width="60" height="360" rx="12" ry="12" 
          fill="url(#signalGradient)" filter="url(#dropshadow)"/>
    
    <!-- Central SIM card element -->
    <rect x="-40" y="-220" width="80" height="60" rx="16" ry="16" 
          fill="url(#accentGradient)" filter="url(#dropshadow)"/>
    
    <!-- Signal transmission waves -->
    <path d="M -80 -240 Q 0 -280 80 -240" stroke="url(#accentGradient)" 
          stroke-width="8" fill="none" opacity="0.8" stroke-linecap="round"/>
    <path d="M -120 -280 Q 0 -330 120 -280" stroke="url(#accentGradient)" 
          stroke-width="6" fill="none" opacity="0.6" stroke-linecap="round"/>
    <path d="M -160 -320 Q 0 -380 160 -320" stroke="url(#accentGradient)" 
          stroke-width="4" fill="none" opacity="0.4" stroke-linecap="round"/>
    
    <!-- Subtle decorative element inspired by Afghan patterns -->
    <rect x="-180" y="220" width="360" height="20" rx="10" ry="10" 
          fill="#1a1a1a" opacity="0.15"/>
    
  </g>
</svg>
